<?xml version="1.0" encoding="utf-8"?>
<!-- Generator: Adobe Illustrator 15.1.0, SVG Export Plug-In . SVG Version: 6.00 Build 0)  -->
<!DOCTYPE svg PUBLIC "-//W3C//DTD SVG 1.1//EN" "http://www.w3.org/Graphics/SVG/1.1/DTD/svg11.dtd">
<svg version="1.1" id="Calque_1" xmlns="http://www.w3.org/2000/svg" xmlns:xlink="http://www.w3.org/1999/xlink" x="0px" y="0px"
	 width="1570px" height="508.475px" viewBox="0 0 1570 508.475" enable-background="new 0 0 1570 508.475" xml:space="preserve">
<g>
	<path fill="#262626" d="M120.526,486.789h-7.529v-55.725h25.771c9.158,0,18.318,3.179,18.318,14.975
		c0,8.226-4.19,11.259-7.757,13.353c3.179,1.319,6.361,2.716,6.671,10.473l0.467,10.096c0.08,3.106,0.465,4.266,2.795,5.586v1.243
		h-9.238c-1.084-3.412-1.315-11.874-1.315-13.973c0-4.576-0.936-9.931-9.939-9.931h-18.241V486.789z M120.526,456.44h17.466
		c5.509,0,11.336-1.392,11.336-9.623c0-8.617-6.292-9.317-10.016-9.317h-18.786V456.44z"/>
	<path fill="#262626" d="M201.723,474.059c-0.231,1.948-2.097,7.684-7.217,11.101c-1.864,1.243-4.504,2.794-11.022,2.794
		c-11.412,0-18.163-8.613-18.163-20.338c0-12.567,6.056-22.588,19.48-22.588c11.725,0,17.466,9.318,17.466,23.682h-29.653
		c0,8.451,3.96,13.348,11.801,13.348c6.442,0,10.246-4.97,10.48-7.998H201.723z M195.206,463.272
		c-0.391-6.288-3.031-12.11-11.334-12.11c-6.288,0-11.258,5.822-11.258,12.11H195.206z"/>
	<path fill="#262626" d="M244.11,486.789h-6.441v-5.587h-0.155c-2.948,5.509-7.608,6.752-11.568,6.752
		c-13.813,0-17.851-12.955-17.851-22.665c0-11.409,6.13-20.261,16.921-20.261c7.373,0,10.48,4.583,12.107,6.908l0.156-0.542v-20.33
		h6.831V486.789z M226.104,482.057c4.344,0,11.099-2.876,11.099-13.667c0-6.598-1.086-17.229-10.944-17.229
		c-10.559,0-11.098,10.019-11.098,15.217C215.161,475.301,218.652,482.057,226.104,482.057z"/>
	<path fill="#262626" d="M288.052,474.059c-0.235,1.948-2.098,7.684-7.219,11.101c-1.862,1.243-4.503,2.794-11.024,2.794
		c-11.408,0-18.164-8.613-18.164-20.338c0-12.567,6.055-22.588,19.484-22.588c11.722,0,17.464,9.318,17.464,23.682h-29.653
		c0,8.451,3.963,13.348,11.801,13.348c6.442,0,10.245-4.97,10.48-7.998H288.052z M281.53,463.272
		c-0.387-6.288-3.029-12.11-11.333-12.11c-6.284,0-11.257,5.822-11.257,12.11H281.53z M271.903,440.76h-5.197l6.906-10.939h8.384
		L271.903,440.76z"/>
	<path fill="#262626" d="M305.209,451.862v34.927h-6.828v-34.927h-5.592v-5.664h5.592v-6.987c0-6.137,3.881-8.933,10.558-8.933
		c1.007,0,2.015,0.084,3.103,0.16v6.13c-0.855-0.074-1.941-0.156-2.794-0.156c-2.95,0-4.038,1.479-4.038,4.742v5.044h6.832v5.664
		H305.209z"/>
	<path fill="#262626" d="M318.487,438.819v-7.755h6.829v7.755H318.487z M325.316,486.789h-6.829v-40.591h6.829V486.789z"/>
	<path fill="#262626" d="M368.631,486.789H361.8v-24.996c0-7.059-2.017-10.631-8.694-10.631c-3.88,0-10.711,2.485-10.711,13.507
		v22.12h-6.828v-40.591h6.439v5.738h0.157c1.471-2.172,5.277-6.908,12.263-6.908c6.287,0,14.205,2.567,14.205,14.133V486.789z"/>
	<path fill="#262626" d="M378.884,438.819v-7.755h6.828v7.755H378.884z M385.712,486.789h-6.828v-40.591h6.828V486.789z"/>
	<path fill="#262626" d="M403.721,486.789h-6.831v-40.591h6.445v6.752h0.154c2.718-4.731,6.286-7.922,11.411-7.922
		c0.853,0,1.242,0.077,1.785,0.238v7.06h-2.559c-6.365,0-10.405,4.972-10.405,10.864V486.789z"/>
	<path fill="#005DAA" d="M450.376,486.789h-6.831v-55.725h6.831V486.789z"/>
	<path fill="#005DAA" d="M459.693,431.064h8.07v7.604c0,5.976-1.786,10.707-8.07,12.183v-3.644c4.035-0.624,4.112-5.28,4.112-7.919
		h-4.112V431.064z"/>
	<path fill="#005DAA" d="M510.921,486.789h-6.828v-26.546c0-5.509-1.551-9.081-8.073-9.081c-5.589,0-11.335,3.262-11.335,13.507
		v22.12h-6.829v-55.725h6.829v20.563h0.159c1.938-2.559,5.354-6.599,11.875-6.599c6.287,0,14.202,2.567,14.202,14.133V486.789z"/>
	<path fill="#005DAA" d="M544.088,446.198h7.53c-4.732,13.271-9.391,26.548-14.593,39.817c-6.442,16.449-7.141,17.383-15.912,17.383
		c-1.01,0-1.788-0.305-2.87-0.613v-6.216c0.85,0.31,2.249,0.701,4.113,0.701c3.568,0,3.96-1.012,7.217-9.39l-15.057-41.683h7.76
		l10.791,33.067h0.155L544.088,446.198z"/>
	<path fill="#005DAA" d="M591.209,483.448c0,5.824-0.078,20.42-18.859,20.42c-4.811,0-14.206-1.315-15.525-12.107h6.831
		c1.24,6.443,7.527,6.443,9.161,6.443c11.798,0,11.563-9.474,11.563-14.286v-1.711h-0.155v0.32
		c-1.789,2.87-5.357,5.427-10.789,5.427c-13.816,0-17.851-12.955-17.851-22.665c0-11.409,6.132-20.261,16.92-20.261
		c7.373,0,10.478,4.583,12.111,6.908h0.153v-5.738h6.441V483.448z M573.588,482.057c4.349,0,11.102-2.876,11.102-13.667
		c0-6.598-1.085-17.229-10.942-17.229c-10.561,0-11.102,10.019-11.102,15.217C562.646,475.301,566.138,482.057,573.588,482.057z"/>
	<path fill="#005DAA" d="M600.843,438.819v-7.755h6.83v7.755H600.843z M607.673,486.789h-6.83v-40.591h6.83V486.789z"/>
	<path fill="#005DAA" d="M652.382,474.059c-0.233,1.948-2.1,7.684-7.216,11.101c-1.869,1.243-4.504,2.794-11.021,2.794
		c-11.416,0-18.167-8.613-18.167-20.338c0-12.567,6.056-22.588,19.483-22.588c11.722,0,17.465,9.318,17.465,23.682h-29.651
		c0,8.451,3.956,13.348,11.796,13.348c6.44,0,10.246-4.97,10.479-7.998H652.382z M622.655,429.821h8.382l6.909,10.939h-5.206
		L622.655,429.821z M645.864,463.272c-0.392-6.288-3.028-12.11-11.335-12.11c-6.287,0-11.253,5.822-11.253,12.11H645.864z"/>
	<path fill="#005DAA" d="M694.15,486.789h-6.834v-24.996c0-7.059-2.018-10.631-8.694-10.631c-3.879,0-10.709,2.485-10.709,13.507
		v22.12h-6.834v-40.591h6.441v5.738h0.158c1.474-2.172,5.279-6.908,12.262-6.908c6.293,0,14.209,2.567,14.209,14.133V486.789z"/>
	<path fill="#005DAA" d="M738.707,474.059c-0.235,1.948-2.098,7.684-7.218,11.101c-1.865,1.243-4.501,2.794-11.021,2.794
		c-11.413,0-18.166-8.613-18.166-20.338c0-12.567,6.054-22.588,19.483-22.588c11.724,0,17.464,9.318,17.464,23.682H709.6
		c0,8.451,3.956,13.348,11.799,13.348c6.442,0,10.243-4.97,10.479-7.998H738.707z M732.185,463.272
		c-0.384-6.288-3.028-12.11-11.333-12.11c-6.284,0-11.253,5.822-11.253,12.11H732.185z"/>
	<path fill="#262626" d="M840.782,486.789h-7.529v-55.725h25.777c9.158,0,18.315,3.179,18.315,14.975
		c0,8.226-4.194,11.259-7.76,13.353c3.18,1.319,6.359,2.716,6.669,10.473l0.473,10.096c0.078,3.106,0.464,4.266,2.794,5.586v1.243
		h-9.241c-1.082-3.412-1.323-11.874-1.323-13.973c0-4.576-0.923-9.931-9.927-9.931h-18.248V486.789z M840.782,456.44h17.475
		c5.504,0,11.328-1.392,11.328-9.623c0-8.617-6.283-9.317-10.014-9.317h-18.79V456.44z"/>
	<path fill="#262626" d="M921.981,474.059c-0.232,1.948-2.097,7.684-7.21,11.101c-1.87,1.243-4.503,2.794-11.023,2.794
		c-11.42,0-18.167-8.613-18.167-20.338c0-12.567,6.056-22.588,19.481-22.588c11.719,0,17.465,9.318,17.465,23.682h-29.648
		c0,8.451,3.953,13.348,11.792,13.348c6.441,0,10.249-4.97,10.481-7.998H921.981z M915.461,463.272
		c-0.381-6.288-3.025-12.11-11.333-12.11c-6.282,0-11.25,5.822-11.25,12.11H915.461z"/>
	<path fill="#262626" d="M940.17,451.862v26.393c0,3.18,2.721,3.18,4.119,3.18h2.406v5.354c-2.484,0.232-4.426,0.551-5.123,0.551
		c-6.755,0-8.224-3.803-8.224-8.699v-26.778h-5.51v-5.664h5.51v-11.332h6.823v11.332h6.524v5.664H940.17z"/>
	<path fill="#262626" d="M986.439,486.789h-6.828v-26.546c0-5.509-1.561-9.081-8.077-9.081c-5.585,0-11.332,3.262-11.332,13.507
		v22.12h-6.829v-55.725h6.829v20.563h0.159c1.938-2.559,5.355-6.599,11.87-6.599c6.292,0,14.208,2.567,14.208,14.133V486.789z"/>
	<path fill="#262626" d="M996.694,438.819v-7.755h6.824v7.755H996.694z M1003.518,486.789h-6.824v-40.591h6.824V486.789z"/>
	<path fill="#262626" d="M1046.838,486.789h-6.834v-24.996c0-7.059-2.02-10.631-8.694-10.631c-3.88,0-10.714,2.485-10.714,13.507
		v22.12h-6.824v-40.591h6.437v5.738h0.155c1.474-2.172,5.277-6.908,12.265-6.908c6.288,0,14.208,2.567,14.208,14.133V486.789z"/>
	<path fill="#262626" d="M1090.776,486.789h-8.771l-12.658-20.49l-5.665,5.122v15.368h-6.596v-55.725h6.596v32.28l17.461-17.146
		h8.693l-15.522,15.137L1090.776,486.789z"/>
	<path fill="#005DAA" d="M1150.396,486.789h-6.833v-26.546c0-5.509-1.55-9.081-8.07-9.081c-5.591,0-11.333,3.262-11.333,13.507
		v22.12h-6.834v-55.725h6.834v20.563h0.155c1.938-2.559,5.354-6.599,11.873-6.599c6.288,0,14.208,2.567,14.208,14.133V486.789z"/>
	<path fill="#005DAA" d="M1183.558,446.198h7.53c-4.731,13.271-9.39,26.548-14.59,39.817c-6.447,16.449-7.143,17.383-15.914,17.383
		c-1.01,0-1.784-0.305-2.875-0.613v-6.216c0.86,0.31,2.251,0.701,4.118,0.701c3.571,0,3.953-1.012,7.215-9.39l-15.054-41.683h7.761
		l10.787,33.067h0.16L1183.558,446.198z"/>
	<path fill="#005DAA" d="M1230.682,483.448c0,5.824-0.077,20.42-18.861,20.42c-4.813,0-14.208-1.315-15.523-12.107h6.829
		c1.236,6.443,7.533,6.443,9.158,6.443c11.801,0,11.569-9.474,11.569-14.286v-1.711h-0.16v0.32
		c-1.783,2.87-5.355,5.427-10.791,5.427c-13.812,0-17.847-12.955-17.847-22.665c0-11.409,6.127-20.261,16.919-20.261
		c7.375,0,10.476,4.583,12.11,6.908h0.155v-5.738h6.442V483.448z M1213.062,482.057c4.344,0,11.101-2.876,11.101-13.667
		c0-6.598-1.088-17.229-10.947-17.229c-10.559,0-11.096,10.019-11.096,15.217C1202.12,475.301,1205.605,482.057,1213.062,482.057z"
		/>
	<path fill="#005DAA" d="M1240.309,438.819v-7.755h6.833v7.755H1240.309z M1247.142,486.789h-6.833v-40.591h6.833V486.789z"/>
	<path fill="#005DAA" d="M1291.849,474.059c-0.227,1.948-2.087,7.684-7.215,11.101c-1.861,1.243-4.504,2.794-11.028,2.794
		c-11.41,0-18.157-8.613-18.157-20.338c0-12.567,6.046-22.588,19.48-22.588c11.724,0,17.46,9.318,17.46,23.682h-29.653
		c0,8.451,3.963,13.348,11.807,13.348c6.446,0,10.249-4.97,10.487-7.998H1291.849z M1285.334,463.272
		c-0.382-6.288-3.035-12.11-11.333-12.11c-6.296,0-11.265,5.822-11.265,12.11H1285.334z"/>
	<path fill="#005DAA" d="M1333.622,486.789h-6.829v-24.996c0-7.059-2.02-10.631-8.694-10.631c-3.896,0-10.724,2.485-10.724,13.507
		v22.12h-6.813v-40.591h6.432v5.738h0.159c1.464-2.172,5.268-6.908,12.266-6.908c6.288,0,14.203,2.567,14.203,14.133V486.789z"/>
	<path fill="#005DAA" d="M1378.18,474.059c-0.237,1.948-2.098,7.684-7.22,11.101c-1.865,1.243-4.504,2.794-11.019,2.794
		c-11.41,0-18.16-8.613-18.16-20.338c0-12.567,6.049-22.588,19.479-22.588c11.719,0,17.461,9.318,17.461,23.682h-29.648
		c0,8.451,3.962,13.348,11.806,13.348c6.432,0,10.235-4.97,10.473-7.998H1378.18z M1371.655,463.272
		c-0.381-6.288-3.024-12.11-11.332-12.11c-6.283,0-11.251,5.822-11.251,12.11H1371.655z"/>
	<path fill="#262626" d="M777.059,464.036c0-4.952,4.016-8.976,8.975-8.976c4.948,0,8.97,4.023,8.97,8.976s-4.021,8.976-8.97,8.976
		C781.075,473.011,777.059,468.988,777.059,464.036z"/>
	<path fill="#262626" d="M1557.539,212.911c-4.436,4.267-9.724,6.396-15.948,6.396c-6.408,0-11.695-2.176-16.121-6.559
		c-4.417-4.365-6.573-9.743-6.573-16.161c0-6.644,2.359-12.155,7.094-16.571c4.417-4.104,9.656-6.152,15.6-6.152
		c6.331,0,11.667,2.218,16.094,6.669c4.426,4.455,6.678,9.793,6.678,16.055C1564.362,203.054,1562.053,208.495,1557.539,212.911z
		 M1528.339,183.404c-3.615,3.702-5.432,8.095-5.432,13.179c0,5.251,1.866,9.719,5.509,13.42c3.644,3.664,8.08,5.521,13.194,5.521
		c5.161,0,9.568-1.857,13.242-5.569c3.604-3.706,5.47-8.178,5.47-13.372c0-5.062-1.818-9.471-5.47-13.179
		c-3.674-3.765-8.081-5.66-13.242-5.66C1536.449,177.744,1531.993,179.639,1528.339,183.404z M1531.675,209.2v-25.134
		c1.595,0,3.875,0,7.007,0.019c3.113,0.014,4.814,0.045,5.172,0.045c2,0.134,3.623,0.588,4.948,1.271
		c2.243,1.252,3.334,3.237,3.334,5.985c0,2.119-0.58,3.631-1.769,4.553c-1.159,0.957-2.648,1.494-4.33,1.688
		c1.604,0.319,2.783,0.812,3.634,1.445c1.479,1.198,2.262,3.092,2.262,5.667v2.243c0,0.244,0,0.503,0.019,0.745
		c0,0.259,0.097,0.499,0.116,0.75l0.185,0.724h-6.245c-0.212-0.817-0.376-1.981-0.436-3.495c-0.067-1.526-0.251-2.563-0.377-3.116
		c-0.395-0.889-1.024-1.491-1.962-1.855c-0.454-0.205-1.217-0.325-2.242-0.388l-1.469-0.097h-1.392v8.951H1531.675z
		 M1543.64,188.956c-0.938-0.337-2.174-0.514-3.895-0.514h-1.614v7.299h2.6c1.547,0,2.765-0.29,3.653-0.913
		c0.861-0.633,1.295-1.615,1.295-3.01C1545.679,190.458,1544.983,189.489,1543.64,188.956z"/>
	<path fill="#262626" d="M873.884,382.591h-48.627V133.158h48.627V382.591z"/>
	<path fill="#262626" d="M1059.709,328.392c-12.854,44.476-49.68,59.061-81.285,59.061c-52.105,0-92.062-25.02-92.062-101.091
		c0-22.234,7.645-93.448,88.582-93.448c36.477,0,86.853,17.367,86.853,101.786v8.683H934.999
		c1.391,13.895,4.165,45.157,43.425,45.157c13.542,0,27.44-6.944,31.257-20.147H1059.709z M1011.769,271.767
		c-2.784-29.875-21.882-38.906-37.511-38.906c-22.936,0-35.095,14.589-37.868,38.906H1011.769z"/>
	<path fill="#262626" d="M1339.431,382.591h-48.645V270.382c0-27.444-12.154-36.479-26.396-36.479
		c-24.317,0-33.002,15.978-33.002,37.863v110.824h-48.636v-111.17c0-15.63,0-37.518-29.19-37.518
		c-22.922,0-30.22,15.978-30.22,36.125v112.563h-48.636V197.776h46.554v27.096h0.687c6.252-12.157,19.808-31.958,52.47-31.958
		c26.749,0,38.908,9.724,51.41,29.527c6.253-9.035,19.804-29.527,49.331-29.527c36.125,0,64.274,21.192,64.274,61.835V382.591z"/>
	<g>
		<path fill="#005DAA" d="M301.892,4.953c-7.318,2.672-11.091,10.699-8.385,18.006c2.64,7.283,10.667,11.024,17.959,8.361
			c7.271-2.649,11.054-10.689,8.401-17.958C317.218,6.06,309.129,2.294,301.892,4.953z M280.529,45.475
			c-0.124-0.329-0.125-0.663-0.256-1.016c-4.581-12.564-18.472-19.031-31.078-14.469c-12.569,4.558-19.044,18.47-14.5,31.06
			c2.802,7.704,9.129,13.072,16.485,15.078c-1.285,6.732-0.991,13.884,1.541,20.801c7.411,20.396,29.962,30.914,50.343,23.488
			c20.402-7.402,30.949-29.952,23.516-50.35C319.688,51.095,299.688,40.878,280.529,45.475z"/>
		<path fill="#005DAA" d="M354.367,256.499c-3.14-6.281-44.588-70.051-44.588-80.965c0-10.91,23.211-41.666,23.211-41.666
			l-82.923,0.503c0,0-21.546,30.253-21.546,38.396c0,8.144,42.798,87.37,51.759,106.344c4.988,10.763,6.936,16.637,7.044,23.779
			c0.094,2.386-0.532,4.519-1.725,6.368h63.81c11.079-3.17,15.049-11.488,15.146-21.259
			C364.651,278.227,357.537,262.841,354.367,256.499z"/>
		<path fill="#005DAA" d="M400.385,331.891c-7.259-13.213-15.155-26.758-27.073-46.432c0.15,1.582,0.223,3.14,0.23,4.678
			c0.231,12.839-6.29,24.507-20.694,28.01l-0.452,0.098h-78.062c0,0-140.661,0-153.789,0c-5.46-0.045-10.242-0.237-14.359-2.723
			c-1.891-1.14-3.314-2.797-4.354-4.83c-4.579,12.641-6.927,23.091-6.9,31.253c0.136,13.5,5.231,21.213,15.587,27.146
			c10.301,5.736,26.094,8.901,46.151,10.774c74.055-0.082,184.657-0.202,201.531-0.503c30.419-0.893,34.411-8.127,40.243-14.758
			c3.277-3.969,6.542-9.439,6.542-16.746C404.984,343.414,403.799,338.153,400.385,331.891z"/>
		<path fill="#005DAA" d="M126.061,241.937c18.139-36.066,36.937-102.211,13.27-170.303
			C112.657,121.489,31.584,278.76,14.486,310.182c-8.892,16.341-12.175,27.851-12.159,36.252c0.05,8.06,2.789,13.463,7.222,18.709
			c9.861,11.21,12.737,13.935,30.032,14.78c5.812,0.185,16.071,0.245,27.144,0.245c22.132,0,45.322-0.245,45.41-0.259h4.219
			c-4.132-1.369-7.904-2.959-11.303-4.839c-12.137-6.581-19.251-17.683-19.109-33.126c0.076-20.066,10.667-47.704,33.478-88.187
			C121.669,249.768,123.876,245.836,126.061,241.937z"/>
		<path fill="#005DAA" d="M215.114,20.484h-92.531l0,0c24.038,39.169,39.17,83.43,36.067,130.576
			c-1.152,17.537-4.087,33.166-7.625,46.537c38.352-70.399,57.306-96.271,63.857-120.154
			C221.114,54.724,215.114,20.484,215.114,20.484z"/>
	</g>
	<path fill="#262626" d="M803.375,346.457c0,21.888,4.861,26.756,10.767,28.837v7.298h-52.454
		c-2.783-8.691-3.474-11.463-4.518-21.886c-11.115,11.463-26.752,26.747-59.754,26.747c-27.79,0-56.275-15.64-56.275-53.851
		c0-36.128,22.926-54.537,53.848-59.052l43.769-6.605c7.643-1.033,17.021-4.169,17.021-14.59c0-20.494-19.456-21.539-31.958-21.539
		c-24.316,0-28.489,14.938-29.873,25.71h-46.904c5.561-56.626,44.815-64.612,82.679-64.612c26.056,0,73.653,7.986,73.653,53.498
		V346.457z M755.778,292.617c-4.862,3.818-12.852,6.945-33,10.069c-18.067,3.128-33.005,7.642-33.005,27.79
		c0,17.031,13.203,22.235,22.581,22.235c21.542,0,43.423-13.896,43.423-36.473V292.617z"/>
	<path fill="#262626" d="M632.334,340.194h-60.16c-14.289,0-24.123-11.922-24.123-25.521V133.158H501.37v199.682
		c0,26.144,14.638,48.809,48.459,48.809h103.523C641.946,372.541,633.874,358.864,632.334,340.194z"/>
	<path fill="#262626" d="M803.375,346.457c0,21.888,4.861,26.756,10.767,28.837v7.298h-52.454
		c-2.783-8.691-3.474-11.463-4.518-21.886c-11.115,11.463-26.752,26.747-59.754,26.747c-27.79,0-56.275-15.64-56.275-53.851
		c0-36.128,22.926-54.537,53.848-59.052l43.769-6.605c7.643-1.033,17.021-4.169,17.021-14.59c0-20.494-19.456-21.539-31.958-21.539
		c-24.316,0-28.489,14.938-29.873,25.71h-46.904c5.561-56.626,44.815-64.612,82.679-64.612c26.056,0,73.653,7.986,73.653,53.498
		V346.457z M755.778,292.617c-4.862,3.818-12.852,6.945-33,10.069c-18.067,3.128-33.005,7.642-33.005,27.79
		c0,17.031,13.203,22.235,22.581,22.235c21.542,0,43.423-13.896,43.423-36.473V292.617z"/>
	<path fill="#262626" d="M1513.746,346.457c0,21.888,4.871,26.756,10.767,28.837v7.298h-52.449
		c-2.784-8.691-3.474-11.463-4.519-21.886c-11.115,11.463-26.754,26.747-59.751,26.747c-27.792,0-56.281-15.64-56.281-53.851
		c0-36.128,22.926-54.537,53.851-59.052l43.769-6.605c7.646-1.033,17.021-4.169,17.021-14.59c0-20.494-19.456-21.539-31.959-21.539
		c-24.313,0-28.488,14.938-29.87,25.71h-46.906c5.558-56.626,44.818-64.612,82.677-64.612c26.059,0,73.651,7.986,73.651,53.498
		V346.457z M1466.153,292.617c-4.862,3.818-12.855,6.945-32.997,10.069c-18.071,3.128-33.008,7.642-33.008,27.79
		c0,17.031,13.203,22.235,22.578,22.235c21.544,0,43.426-13.896,43.426-36.473V292.617z"/>
</g>
</svg>
